<svg version="1.1" id="Слой_1" xmlns="http://www.w3.org/2000/svg" xmlns:xlink="http://www.w3.org/1999/xlink" x="0" y="0" viewBox="0 0 41 40" xml:space="preserve"><style>.st1{fill:#070707}</style><defs><path id="SVGID_1_" d="M.1 0h40.1v40H.1z"/></defs><clipPath id="SVGID_00000170254406426516944930000006177688000046018994_"><use xlink:href="#SVGID_1_" overflow="visible"/></clipPath><g clip-path="url(#SVGID_00000170254406426516944930000006177688000046018994_)"><path class="st1" d="M34.3 0H6C2.7 0 .1 2.6.1 5.9v28.3C.1 37.4 2.7 40 6 40h28.4c3.2 0 5.9-2.6 5.9-5.9V5.9c-.1-3.3-2.7-5.9-6-5.9zm3.5 34.1c0 1.9-1.6 3.5-3.5 3.5H6c-1.9 0-3.5-1.6-3.5-3.5V5.9C2.4 3.9 4 2.3 6 2.3h28.4c1.9 0 3.5 1.6 3.5 3.5v28.3z"/><path class="st1" d="M34.3 40.3H6c-3.4 0-6.1-2.7-6.1-6.1V5.9C-.1 2.5 2.6-.2 6-.2h28.4c3.4 0 6.1 2.7 6.1 6.1v28.3c-.1 3.3-2.8 6.1-6.2 6.1zM6 .2C2.9.2.4 2.7.4 5.8v28.3c0 3.1 2.5 5.6 5.6 5.6h28.4c3.1 0 5.6-2.5 5.6-5.6V5.9C40 2.8 37.5.3 34.4.3H6zm28.3 37.7H6c-2.1 0-3.8-1.7-3.8-3.8V5.9c0-2.1 1.7-3.8 3.8-3.8h28.4c2.1 0 3.8 1.7 3.8 3.8v28.3c-.1 2-1.8 3.7-3.9 3.7zM6 2.6c-1.8 0-3.3 1.5-3.3 3.3v28.3c0 1.8 1.5 3.3 3.3 3.3h28.4c1.8 0 3.3-1.5 3.3-3.3V5.9c0-1.8-1.5-3.3-3.3-3.3H6z"/><path class="st1" d="M19 16.5c0-2.6-2.1-4.7-4.7-4.7H7.2v16.4h7.1c2.6 0 4.7-2.1 4.7-4.7 0-1.4-.6-2.7-1.6-3.5.9-.9 1.6-2.1 1.6-3.5zm-2.4 7c0 1.3-1.1 2.3-2.4 2.3H9.6v-4.7h4.7c1.3.1 2.3 1.1 2.3 2.4zm-7-4.7v-4.7h4.7c1.3 0 2.4 1.1 2.4 2.3 0 1.3-1.1 2.3-2.4 2.3H9.6z"/><path class="st1" d="M14.3 28.5H7v-17h7.3c2.7 0 5 2.2 5 4.9 0 1.3-.5 2.6-1.5 3.5.9.9 1.5 2.2 1.5 3.5-.1 2.8-2.3 5.1-5 5.1zM7.5 28h6.8c2.5 0 4.5-2 4.5-4.4 0-1.3-.6-2.5-1.5-3.3L17 20l.2-.2c1-.8 1.5-2.1 1.5-3.3 0-2.4-2-4.4-4.5-4.4H7.5V28zm6.8-1.9h-5v-5.2h5c1.4 0 2.6 1.2 2.6 2.6s-1.2 2.6-2.6 2.6zm-4.5-.5h4.5c1.2 0 2.1-.9 2.1-2.1s-.9-2.1-2.1-2.1H9.8v4.2zm4.5-6.5h-5v-5.2h5c1.4 0 2.6 1.2 2.6 2.6s-1.2 2.6-2.6 2.6zm-4.5-.5h4.5c1.2 0 2.1-.9 2.1-2.1s-.9-2.1-2.1-2.1H9.8v4.2zm17.4-2.1c-3.2 0-5.9 2.6-5.9 5.9 0 3.2 2.6 5.9 5.9 5.9 2.1 0 4-1.1 5.1-2.9l-2-1.2c-.6 1.1-1.8 1.8-3.1 1.8-1.5 0-2.8-1-3.3-2.3h9.2v-1.2c0-3.4-2.7-6-5.9-6zm-3.3 4.7c.5-1.4 1.8-2.3 3.3-2.3 1.5 0 2.8 1 3.3 2.3h-6.6z"/><path class="st1" d="M27.2 28.5c-3.4 0-6.1-2.7-6.1-6.1s2.7-6.1 6.1-6.1c3.4 0 6.1 2.7 6.1 6.1v1.4h-3.2l2.5 1.4-.1.2c-1.1 1.9-3.1 3.1-5.3 3.1zm0-11.8c-3.1 0-5.6 2.5-5.6 5.6 0 3.1 2.5 5.6 5.6 5.6 1.9 0 3.7-1 4.7-2.6l-1.6-.9c-.7 1-1.9 1.7-3.1 1.7-1.6 0-3-1-3.6-2.5l-.1-.3h9.3v-.9c0-3.1-2.5-5.7-5.6-5.7zm-3 7.1c.5 1.1 1.7 1.8 2.9 1.8s2.3-.6 2.8-1.6l.1-.2h-5.8zm6.7-2.4h-7.4l.1-.3c.5-1.5 2-2.5 3.6-2.5s3 1 3.6 2.5l.1.3zm-6.7-.5h5.9c-.5-1.1-1.7-1.8-2.9-1.8s-2.4.7-3 1.8zm-1.7-9.1h9.4v2.3h-9.4v-2.3z"/><path class="st1" d="M32.1 14.4h-9.9v-2.8h9.9v2.8zm-9.4-.5h8.9V12h-8.9v1.9z"/></g></svg>