<svg version="1.1" id="Слой_1" xmlns="http://www.w3.org/2000/svg" x="0" y="0" viewBox="0 0 40 41" xml:space="preserve"><style>.st0{fill:#070707}</style><path class="st0" d="M30.7 7.9l.3-.4-.4-.3C27.7 4.8 24 3.4 19.9 3.4c-1.4 0-2.8.2-4.1.5l-.7.2.4.6c1.4 1.9 3.4 4.7 5.8 9.1l.2.4.4-.2c4.6-1.7 7.3-4.2 8.8-6.1zM13.4 5.1l-.2-.3-.4.2c-4.5 2.1-7.9 6.2-9.2 11.1l-.2.6H4c2.5.1 8.4 0 15-1.8l.6-.2-.3-.6c-2.6-4.5-4.8-7.4-5.9-9zm19.4 4.3l-.4-.5-.4.5c-1.7 2-4.5 4.6-9.1 6.4l-.4.2.2.5c1 2 1.9 4.1 2.8 6.4l.1.4.4-.1c3.3-.5 6.3-.5 8.6-.3.6 0 .9.1 1.3.2h.3l.5.1.1-.5c.1-.6.1-1.3.1-1.9.1-4.4-1.5-8.3-4.1-11.4zM20.7 17l-.2-.4-.4.1c-7.7 2.2-14.5 2.1-16.6 2H3v.5c0 .5-.1 1-.1 1.5 0 5.2 2.3 9.9 5.8 13.1l.4.3.3-.4c.9-1 2.1-2.3 3.6-3.6 2.7-2.5 6.3-5.2 10.1-6.4l.5-.2-.2-.5c-.8-2-1.8-4.1-2.7-6zm9.5 7.9c-1 0-2.1.1-3.2.3l-.6.1.2.6c.9 2.8 1.7 5.9 2.2 9l.1.8.7-.5c3.2-2.2 5.6-5.5 6.7-9.4l.2-.6-.6-.1c-1.5-.1-3.4-.3-5.7-.2zm-5.7 1.2l-.2-.5-.5.1c-3.4 1-6.9 3.5-9.6 6C13 33 12 34.1 11.1 35l-.4.5.5.3c2.5 1.5 5.5 2.4 8.7 2.4 2.4 0 4.7-.5 6.7-1.4l.3-.2-.1-.4c-.4-3.5-1.2-6.9-2.3-10.1zM.9 20.8C.9 10 9.4 1.3 19.9 1.3S39 10 39 20.8s-8.6 19.5-19.1 19.5c-10.5 0-19-8.8-19-19.5z"/><path class="st0" d="M19.9 40.8c-10.8 0-19.6-9-19.6-20S9.1.8 19.9.8s19.6 9 19.6 20-8.8 20-19.6 20zm0-39c-10.2 0-18.6 8.5-18.6 19s8.3 19 18.6 19c10.2 0 18.6-8.5 18.6-19s-8.3-19-18.6-19zm0 36.9c-3.1 0-6.2-.9-8.9-2.5l-1-.6.8-.9c.9-1 2-2.1 3.2-3.2 1.9-1.8 5.8-4.9 9.8-6.1l.9-.3.3.9c1.2 3.4 2 6.9 2.4 10.3l.1.8-.7.3c-2.2.8-4.5 1.3-6.9 1.3zm-8.4-3.4c4.5 2.7 10.1 3.1 14.9 1-.4-3.3-1.2-6.7-2.4-10-3.8 1.1-7.5 4.2-9.4 5.9-1.2 1.1-2.2 2.1-3.1 3.1zm17 1.2l-.2-1.6c-.5-2.9-1.2-5.9-2.2-8.9l-.4-1.1 1.2-.2c1.1-.1 2.2-.2 3.2-.3 2.3-.1 4.2.1 5.7.2l1.2.1-.3 1.1c-1.1 3.9-3.6 7.3-6.9 9.7l-1.3 1zM27 25.7c1 3.1 1.7 6.1 2.2 9.1 3.1-2.2 5.5-5.4 6.5-9.1-1.5-.2-3.3-.3-5.6-.2-1 0-2 .1-3.1.2zM9.1 34.9l-.7-.7c-3.8-3.4-6-8.3-6-13.5 0-.5 0-1 .1-1.5l.1-1h1c2.5.1 9 .1 16.5-2l.8-.2.4.7c1 2 2 4.1 2.8 6.2l.4 1-1 .3c-3.1.9-6.4 3.1-9.9 6.3-1.2 1.1-2.3 2.3-3.5 3.6l-1 .8zM3.4 19.3c0 .5-.1 1-.1 1.5 0 4.9 2.1 9.5 5.7 12.7 1.2-1.3 2.4-2.5 3.6-3.6 3.6-3.3 7.1-5.5 10.3-6.5-.8-2-1.7-4.1-2.7-6.1-7.6 2.1-14.2 2.1-16.8 2zm21.9 4.6l-.3-.8c-.8-2.1-1.7-4.2-2.8-6.4l-.5-1 1-.4c4.5-1.8 7.3-4.4 8.9-6.3l.8-.9.8.9c2.8 3.3 4.3 7.4 4.3 11.7 0 .6 0 1.3-.1 2l-.1 1-1.3-.2c-.4-.1-.8-.1-1.3-.2-1.9-.2-5-.2-8.5.3l-.9.3zm-2.2-7.6c1.1 2.2 2 4.4 2.8 6.5 3.6-.6 6.8-.5 8.8-.3.6 0 .9.1 1.4.2h.3c.1-.7.1-1.3.1-1.9 0-4-1.4-8-4-11.1-1.7 2-4.6 4.7-9.4 6.6zm-18 1H2.6L3 16c1.4-5.1 4.8-9.2 9.5-11.4l.7-.3.5.6c.8 1 3.1 4.1 5.9 9.1l.6 1.1-1.2.3C13.1 17 7.7 17.3 5.1 17.3zM4 16.2c1.7.1 7.8.1 14.8-1.8-2.8-5-5.1-8-5.8-9-4.4 2.1-7.7 6.1-9 10.8zm17.3-1.4l-.4-.8c-2.3-4.3-4.3-7.1-5.7-9.1l-.9-1.2 1.5-.4c1.4-.4 2.9-.5 4.2-.5 4.1 0 7.9 1.4 11 4l.8.6-.6.8c-1.5 1.9-4.3 4.6-8.9 6.3l-1 .3zM15.9 4.4c1.5 2 3.4 4.8 5.8 9.2 4.4-1.6 7.1-4.1 8.5-6-3-2.4-6.5-3.7-10.4-3.7-1.2 0-2.5.1-3.9.5z"/></svg>