<svg version="1.1" id="Слой_1" xmlns="http://www.w3.org/2000/svg" x="0" y="0" viewBox="0 0 40 41" xml:space="preserve"><style>.st0{fill:#070707}</style><path class="st0" d="M12.2 1.3h16.4c6 0 10.8 5 10.8 11.1v16.8c0 6.1-4.9 11.1-10.8 11.1H12.2c-6 0-10.9-5-10.9-11.1V12.4c0-6.1 4.9-11.1 10.9-11.1zM3.3 12.4v16.8c0 5 3.9 9 8.8 9h16.4c4.9 0 8.8-4 8.8-9V12.4c0-5-3.9-9-8.8-9H12.2c-4.9 0-8.9 4-8.9 9zm28.1-3.9c0-.6.5-1 1-1 .6 0 1 .4 1 1s-.5 1-1 1-1-.4-1-1zM10.3 20.8c0-5.7 4.5-10.3 10-10.3s10 4.6 10 10.3c0 5.7-4.5 10.3-10 10.3-5.4 0-10-4.7-10-10.3zm18.1 0c0-4.5-3.6-8.2-8-8.2-4.5 0-8 3.7-8 8.2s3.6 8.2 8 8.2 8-3.7 8-8.2z"/><path class="st0" d="M28.6 40.8H12.2C5.9 40.8.8 35.6.8 29.2V12.4C.8 6 5.9.8 12.2.8h16.4C34.9.8 39.9 6 39.9 12.4v16.8c0 6.4-5.1 11.6-11.3 11.6zm-16.4-39C6.5 1.8 1.8 6.6 1.8 12.4v16.8c0 5.8 4.6 10.6 10.4 10.6h16.4c5.7 0 10.3-4.8 10.3-10.6V12.4c0-5.9-4.6-10.6-10.3-10.6H12.2zm16.4 36.9H12.2c-5.2 0-9.3-4.3-9.3-9.5V12.4c0-5.3 4.2-9.5 9.3-9.5h16.4c5.1 0 9.3 4.3 9.3 9.5v16.8c0 5.2-4.2 9.5-9.3 9.5zM3.8 12.4v16.8c0 4.7 3.7 8.5 8.3 8.5h16.4c4.6 0 8.3-3.8 8.3-8.5V12.4c0-4.7-3.7-8.5-8.3-8.5H12.2c-4.6 0-8.4 3.8-8.4 8.5zm16.6 19.2c-5.8 0-10.5-4.8-10.5-10.8 0-5.9 4.7-10.8 10.5-10.8s10.5 4.8 10.5 10.8c0 5.9-4.7 10.8-10.5 10.8zm0-20.6c-5.3 0-9.5 4.4-9.5 9.8s4.3 9.8 9.5 9.8 9.5-4.4 9.5-9.8-4.3-9.8-9.5-9.8zm0 18.5c-4.7 0-8.5-3.9-8.5-8.7s3.8-8.7 8.5-8.7 8.5 3.9 8.5 8.7-3.8 8.7-8.5 8.7zm0-16.4c-4.1 0-7.5 3.4-7.5 7.7 0 4.2 3.4 7.7 7.5 7.7s7.5-3.4 7.5-7.7c0-4.3-3.4-7.7-7.5-7.7zm12-3.1c-.8 0-1.5-.7-1.5-1.5S31.6 7 32.4 7s1.5.7 1.5 1.5-.7 1.5-1.5 1.5zm0-2.1c-.3 0-.5.2-.5.5s.2.6.5.6.5-.2.5-.5-.2-.6-.5-.6z"/></svg>